# File created by Blade
# Date/Time:  Thu Jan 22 16:00:44 2015
# Frame Rate: 120.000 fps
#------------------------------------------------------
:FULLY-SPECIFIED
:DEGREES
1207
root 1.358793 37.200755 6.327153 1.018408 -8.100813 0.008573
RightUpLeg 7.235474 4.967445 -0.899623
RightLeg -6.192519 -0.000000 0.000000
RightFoot -8.283096 -9.039274 16.843416
RightToeBase 13.067513 -0.000000 -0.000000
LeftUpLeg 7.084938 10.394420 7.188082
LeftLeg -4.100812 -0.000000 0.000000
LeftFoot -4.610067 6.533222 -20.848304
LeftToeBase 7.250226 -0.000000 -0.000000
Spine -3.722922 -12.192528 -11.414249
RightShoulder -13.009468 23.980529 -48.011640
RightArm 113.959498 45.011010 86.485840
RightForeArm 82.114869 -0.000000 144.766814
RightHand 19.440251 -0.000000 11.500630
RightHandThumb1 -24.326973 -0.000000 -32.862282
LeftShoulder -3.967318 47.027369 4.329777
LeftArm 121.927922 28.278565 38.755811
LeftForeArm 52.396921 0.000000 130.363840
LeftHand -80.469759 -0.000000 85.536494
LeftHandThumb1 -26.253704 0.000000 33.147579
Head 47.310166 24.019500 20.725576
1208
root 1.361842 37.199123 6.352977 1.016605 -8.113501 0.015570
RightUpLeg 7.291247 4.981278 -0.908370
RightLeg -6.223211 -0.000000 0.000000
RightFoot -8.306566 -9.057623 16.829776
RightToeBase 13.080021 -0.000000 -0.000000
LeftUpLeg 7.126000 10.367866 7.171069
LeftLeg -4.098096 -0.000000 0.000000
LeftFoot -4.652195 6.572370 -20.825169
LeftToeBase 7.258762 -0.000000 -0.000000
Spine -3.846357 -12.140536 -11.394330
RightShoulder -13.067764 23.842915 -47.914274
RightArm 114.504248 44.873316 86.856634
RightForeArm 81.579380 -0.000000 145.404727
RightHand 19.115357 0.000000 12.578821
RightHandThumb1 -24.326973 -0.000000 -32.862282
LeftShoulder -3.969319 47.013959 4.372536
LeftArm 121.920289 28.312246 38.737850
LeftForeArm 52.361200 -0.000000 130.383081
LeftHand -80.458225 0.000000 86.005711
LeftHandThumb1 -26.253704 0.000000 33.147579
Head 47.384615 24.205731 20.816983
1209
root 1.369091 37.196703 6.378060 1.016129 -8.125062 0.033102
RightUpLeg 7.330610 4.983421 -0.935594
RightLeg -6.226883 -0.000000 0.000000
RightFoot -8.361708 -9.047042 16.854566
RightToeBase 13.114491 -0.000000 -0.000000
LeftUpLeg 7.153531 10.337624 7.141465
LeftLeg -4.071544 -0.000000 0.000000
LeftFoot -4.721545 6.584498 -20.835146
LeftToeBase 7.291513 -0.000000 -0.000000
Spine -3.956816 -12.047865 -11.357314
RightShoulder -13.180835 23.668710 -47.865515
RightArm 115.034968 44.738996 87.229723
RightForeArm 81.041916 -0.000000 145.936006
RightHand 18.875143 -0.000000 13.697478
RightHandThumb1 -24.326973 -0.000000 -32.862282
LeftShoulder -3.982926 46.977380 4.372814
LeftArm 121.942527 28.323030 38.769763
LeftForeArm 52.354287 0.000000 130.420064
LeftHand -80.458406 -0.000000 86.402006
LeftHandThumb1 -26.253704 0.000000 33.147579
Head 47.490683 24.408591 21.008635
1210
root 1.374888 37.196545 6.403105 0.965162 -8.136162 0.042419
RightUpLeg 7.421998 4.994900 -0.951249
RightLeg -6.233552 -0.000000 0.000000
RightFoot -8.388931 -9.038856 16.895219
RightToeBase 13.110174 -0.000000 -0.000000
LeftUpLeg 7.242530 10.310987 7.128632
LeftLeg -4.063959 -0.000000 0.000000
LeftFoot -4.728756 6.599442 -20.778734
LeftToeBase 7.142030 -0.000000 -0.000000
Spine -4.026677 -12.188365 -11.380013
RightShoulder -13.079838 23.981963 -47.704666
RightArm 114.988375 44.640145 87.211797
RightForeArm 80.527141 -0.000000 146.431431
RightHand 18.624350 -0.000000 14.654303
RightHandThumb1 -24.326973 -0.000000 -32.862282
LeftShoulder -4.223321 47.013235 4.280066
LeftArm 121.937921 28.349425 38.674209
LeftForeArm 52.359691 -0.000000 130.370063
LeftHand -80.407506 -0.000000 86.756014
LeftHandThumb1 -26.253704 0.000000 33.147579
Head 47.540260 24.596018 21.033888
1211
root 1.383104 37.195254 6.428427 0.933677 -8.177981 0.067292
RightUpLeg 7.484789 5.009486 -0.985611
RightLeg -6.234538 -0.000000 0.000000
RightFoot -8.433262 -9.027651 16.878073
RightToeBase 13.181625 -0.000000 -0.000000
LeftUpLeg 7.317178 10.316414 7.094348
LeftLeg -4.063691 -0.000000 0.000000
LeftFoot -4.789630 6.624941 -20.822127
LeftToeBase 7.257653 -0.000000 -0.000000
Spine -4.120237 -12.118724 -11.367215
RightShoulder -13.097809 23.971282 -47.616624
RightArm 115.219781 44.587295 87.329922
RightForeArm 80.033740 -0.000000 146.787795
RightHand 18.472635 -0.000000 15.349722
RightHandThumb1 -24.326973 -0.000000 -32.862282
LeftShoulder -4.285328 47.045117 4.257338
LeftArm 121.884826 28.368537 38.601471
LeftForeArm 52.474009 -0.000000 130.385025
LeftHand -80.506686 -0.000000 87.272439
LeftHandThumb1 -26.253704 0.000000 33.147579
Head 47.466517 24.606867 20.827503
1212
root 1.388736 37.192783 6.455780 0.897097 -8.210560 0.075509
RightUpLeg 7.544755 5.037218 -0.999290
RightLeg -6.200891 -0.000000 0.000000
RightFoot -8.500692 -9.030165 16.861400
RightToeBase 13.172188 -0.000000 -0.000000
LeftUpLeg 7.403199 10.333654 7.086910
LeftLeg -4.058753 -0.000000 0.000000
LeftFoot -4.819840 6.602946 -20.790082
LeftToeBase 7.187636 -0.000000 -0.000000
Spine -4.198572 -12.015847 -11.324312
RightShoulder -13.163497 23.827599 -47.529036
RightArm 115.541792 44.490148 87.470390
RightForeArm 79.536362 -0.000000 147.060395
RightHand 18.229952 -0.000000 15.951549
RightHandThumb1 -24.326973 -0.000000 -32.862282
LeftShoulder -4.316865 47.049714 4.246339
LeftArm 121.858457 28.405885 38.557134
LeftForeArm 52.505211 -0.000000 130.398254
LeftHand -80.552204 0.000000 87.835429
LeftHandThumb1 -26.253704 0.000000 33.147579
Head 47.521949 24.746205 20.928907
1213
root 1.395722 37.190643 6.480050 0.877901 -8.223945 0.078107
RightUpLeg 7.580267 5.054655 -1.008486
RightLeg -6.158567 -0.000000 0.000000
RightFoot -8.567437 -9.029176 16.866589
RightToeBase 13.154096 -0.000000 -0.000000
LeftUpLeg 7.461729 10.392471 7.080951
LeftLeg -4.058010 -0.000000 0.000000
LeftFoot -4.868043 6.567996 -20.791646
LeftToeBase 7.286833 -0.000000 -0.000000
Spine -4.292379 -11.915560 -11.253453
RightShoulder -13.209335 23.680092 -47.464368
RightArm 115.769810 44.516541 87.501607
RightForeArm 79.142609 -0.000000 147.225555
RightHand 18.059805 -0.000000 16.381420
RightHandThumb1 -24.326973 -0.000000 -32.862282
LeftShoulder -4.307741 47.064151 4.243770
LeftArm 121.823202 28.438718 38.520583
LeftForeArm 52.567249 -0.000000 130.412138
LeftHand -80.599530 -0.000000 88.248590
LeftHandThumb1 -26.253704 0.000000 33.147579
Head 47.537943 24.854785 20.897636
1214
root 1.406471 37.188630 6.504282 0.849497 -8.234055 0.102402
RightUpLeg 7.612368 5.031303 -1.051842
RightLeg -6.098951 -0.000000 0.000000
RightFoot -8.636405 -8.968700 16.879218
RightToeBase 13.170721 -0.000000 -0.000000
LeftUpLeg 7.507135 10.414899 7.047677
LeftLeg -4.016586 -0.000000 0.000000
LeftFoot -4.920497 6.530979 -20.778458
LeftToeBase 7.275643 -0.000000 -0.000000
Spine -4.379839 -11.836998 -11.201499
RightShoulder -13.237206 23.578720 -47.406495
RightArm 115.860821 44.582268 87.344430
RightForeArm 78.718431 0.000000 147.328290
RightHand 17.995628 -0.000000 16.672995
RightHandThumb1 -24.326973 -0.000000 -32.862282
LeftShoulder -4.317447 47.102017 4.253095
LeftArm 121.768748 28.437696 38.452803
LeftForeArm 52.642779 -0.000000 130.413032
LeftHand -80.694184 -0.000000 88.779795
LeftHandThumb1 -26.253704 0.000000 33.147579
Head 47.600167 24.984242 20.922073
1215
root 1.415014 37.186910 6.527740 0.825204 -8.217942 0.105965
RightUpLeg 7.645790 4.999167 -1.068253
RightLeg -6.039550 -0.000000 0.000000
RightFoot -8.708204 -8.935357 16.915563
RightToeBase 13.173494 -0.000000 -0.000000
LeftUpLeg 7.542236 10.401564 7.037091
LeftLeg -3.972504 -0.000000 0.000000
LeftFoot -4.984795 6.501406 -20.760313
LeftToeBase 7.310485 -0.000000 -0.000000
Spine -4.465743 -11.797669 -11.104625
RightShoulder -13.248903 23.475583 -47.357121
RightArm 115.910880 44.670332 87.120167
RightForeArm 78.186498 -0.000000 147.381212
RightHand 17.855714 -0.000000 16.805207
RightHandThumb1 -24.326973 -0.000000 -32.862282
LeftShoulder -4.327074 47.074119 4.237487
LeftArm 121.768345 28.489505 38.446624
LeftForeArm 52.697668 -0.000000 130.413850
LeftHand -80.680547 0.000000 89.228294
LeftHandThumb1 -26.253704 0.000000 33.147579
Head 47.642240 25.096195 20.836735
1216
root 1.424196 37.184327 6.553923 0.768240 -8.206542 0.121238
RightUpLeg 7.720434 4.983924 -1.094429
RightLeg -5.992362 -0.000000 0.000000
RightFoot -8.788808 -8.903886 16.927413
RightToeBase 13.194879 -0.000000 -0.000000
LeftUpLeg 7.618518 10.385039 7.018666
LeftLeg -3.939176 -0.000000 0.000000
LeftFoot -5.042001 6.478900 -20.753592
LeftToeBase 7.323738 -0.000000 -0.000000
Spine -4.516970 -11.740752 -11.029469
RightShoulder -13.261945 23.367056 -47.308845
RightArm 115.897124 44.814637 86.827228
RightForeArm 77.704806 -0.000000 147.368077
RightHand 17.764062 -0.000000 16.933870
RightHandThumb1 -24.326973 -0.000000 -32.862282
LeftShoulder -4.337191 47.100776 4.238711
LeftArm 121.730592 28.483327 38.409371
LeftForeArm 52.758251 -0.000000 130.422419
LeftHand -80.661280 -0.000000 89.623044
LeftHandThumb1 -26.253704 0.000000 33.147579
Head 47.677561 25.231661 20.838004
1217
root 1.431351 37.181143 6.581073 0.707381 -8.179940 0.133556
RightUpLeg 7.812149 5.017231 -1.111508
RightLeg -5.960321 -0.000000 0.000000
RightFoot -8.874054 -8.922591 16.969107
RightToeBase 13.230696 -0.000000 -0.000000
LeftUpLeg 7.694471 10.369993 7.009840
LeftLeg -3.895217 -0.000000 0.000000
LeftFoot -5.108637 6.432494 -20.736920
LeftToeBase 7.372433 -0.000000 -0.000000
Spine -4.559429 -11.684797 -10.956412
RightShoulder -13.275449 23.256130 -47.257372
RightArm 115.833275 44.976146 86.449090
RightForeArm 77.143835 -0.000000 147.320639
RightHand 17.677467 0.000000 16.969516
RightHandThumb1 -24.326973 -0.000000 -32.862282
LeftShoulder -4.292070 47.073541 4.289106
LeftArm 121.734659 28.538215 38.389612
LeftForeArm 52.785074 -0.000000 130.425492
LeftHand -80.625793 -0.000000 89.927429
LeftHandThumb1 -26.253704 0.000000 33.147579
Head 47.803905 25.394258 20.985774
